# xmcd CD database file
#
# Track frame offsets:
#	150
#	30355
#	48107
#	66835
#	94940
#	120527
#	139820
#	162030
#	186477
#	204440
#	210660
#
# Disc length: 3152 seconds
#
# Revision: 2
# Processed by: cddbd v1.5.2PL0 Copyright (c) Steve Scherf et al.
# Submitted via: CDex 1.70beta3
#
DISCID=950c4e0b
DTITLE=ベイ・シュー - ロスト・イン・トランスレーション
DYEAR=2007
DGENRE=Jazz
TTITLE0=オーディナリー・ピープル
TTITLE1=イッツ・エイント・オーバー・ティル・イッツ・オーバー
TTITLE2=メロディ
TTITLE3=アイ・ラブ・ユー、ポーギー
TTITLE4=ア・ハッピー・ニュー・イヤー
TTITLE5=クレア
TTITLE6=ユーアー・ビューティフル
TTITLE7=ラブ・ミー・テンダー
TTITLE8=ユー・ギブ・ミー・サムシング
TTITLE9=イントロダクション・オブ・ア・ハッピー・ニュー・イヤー
TTITLE10=タイム・アフター・タイム
EXTD=YEAR: 2007
EXTT0=
EXTT1=
EXTT2=
EXTT3=
EXTT4=
EXTT5=
EXTT6=
EXTT7=
EXTT8=
EXTT9=
EXTT10=
PLAYORDER=
